<svg xmlns="http://www.w3.org/2000/svg" xmlns:xlink="http://www.w3.org/1999/xlink" version="1.1" id="Layer_1" x="0" y="0" width="408.19" height="249.45" viewBox="0 0 408.19 249.45" enable-background="new 0 0 408.189 249.449" xml:space="preserve">
  <path fill="#FFFFFF" d="M281.76 153.39c-1.32 0.44-6.75 0.96-17.28 3.71 -3.77 0.98-3.94 1-4.92 1.29 -1.52 0.45-2.88-0.3-3.81-0.87 -2.94-1.81-5.5-1.37-13.56 0.37 -8.36 1.8-75.05 15.2-75.44 15.44 -0.4 0.26-0.7 0.99-0.7 1.73 0 1.69-0.54 5.83-7.9 13.73 -7.57 8.12-11.88 9.61-13.57 11.34 -0.29 0.3 101.89-20.25 106.71-21.47 2.13-0.54 6.42-1.71 7.71-3.76 1.82-2.91 0.73-2.65 4.67-3.66 2.09-0.54 4.74-0.96 6.17-1.34 1.43-0.38 6.04-1.19 10.33-2.33 4.3-1.14 11.27-3.13 11.84-3.5 2.65-1.68 2.09-9.83-0.84-10.83 -0.8-0.27-5.15-0.89-5.26-0.86C285.79 152.39 281.76 153.39 281.76 153.39z"/>
  <path fill="#FFFFFF" d="M290.87 172.97c-1.3 2.36-2.43 3.81-4.01 5.82 -4.4 5.58-5.09 7.49-5.09 11.09 0 7.8 7.36 10.02 10.25 10.02 3.25 0 10.25-2.23 10.25-10.02 0-3.64-0.69-5.6-5.19-11.09 -1.37-1.67-2.62-3.37-3.95-5.7 -0.51-0.89-0.94-1.85-1.1-1.85C291.82 171.23 291.3 172.19 290.87 172.97z"/>
  <path d="M249.82 187.2c5.74-1.2 9.72 1.47 9.72 6.53 0 6.79-6.27 13.74-13.01 14.44 -4.18 0.43-7.15-1.53-7.15-4.72 0-1.89 0.47-1.98 1.24-0.24 0.32 0.72 1.02 1.44 1.61 1.65 4.34 1.5 10.08-4.99 7.18-8.11 -3.6-3.86-11.77 2.53-11.81 9.24 -0.02 2.77 0.83 4.13 3.39 5.44 5.6 2.86 12.33-0.78 18.84-10.18 3.8-5.49-0.17 3.98-4.37 10.4 -1.1 1.69-2.88 3.92-3.91 4.91 -5.06 4.86-12.54 6-16.71 2.55 -2.28-1.88-3.14-4.16-3.15-8.33 -0.02-4.09 0.33-5.42 2.54-9.72C237.89 193.89 244.08 188.4 249.82 187.2L249.82 187.2zM221.63 191.13c-1.85 0.47-4.74 2.96-6.59 5.69 -1.51 2.23-1.71 1.89-0.74-1.33 0.35-1.16 0.57-2.24 0.51-2.43 -0.07-0.19-1.37 0.17-2.93 0.8 -1.57 0.64-3.97 1.43-5.42 1.79 -1.44 0.36-3.33 0.84-4.22 1.08l-1.61 0.44 1.21 0.39c2.19 0.71 3.01 1.82 3.01 4.07 0 6.79-9.63 34.7-15.5 44.94 -0.6 1.04-1 1.97-0.9 2.07 0.1 0.1 1.81-0.34 3.77-0.96 1.97-0.63 4.78-1.37 6.21-1.65 1.45-0.28 2.67-0.55 2.73-0.6 0.07-0.06 0.21-1.06 0.32-2.27 0.57-6.27 1.71-11.49 4.54-20.89 3.96-13.13 7.14-19.1 11.33-21.22 2.61-1.32 4.29-0.91 5.45 1.34 2.12 4.11-0.95 11.97-5.57 14.26 -1.73 0.86-1.94 0.88-3.27 0.33 -0.97-0.4-1.69-1.1-2.25-2.23 -0.46-0.92-0.87-1.65-0.94-1.65 -0.34 0-3.96 10.92-3.78 11.41 0.39 1.01 2.69 1.89 4.98 1.89 5.31 0 10.22-4.18 13.97-11.89 2.56-5.26 3.35-8.04 3.68-12.89 0.32-4.7-0.44-7.57-2.47-9.34 -0.8-0.7-1.75-1.28-2.13-1.3 -0.36-0.02-0.97-0.09-1.28-0.14C223.39 190.8 222.43 190.93 221.63 191.13L221.63 191.13zM177.77 76.8c1.25-0.17 2.66-0.26 3.09-0.22 4.14 0.46 5.44 0.73 7.71 1.57 2.45 0.92 7.59 3.75 9.68 5.35l0.92 0.7 -3.78 10.8c-4.76 13.62-9.61 28.34-10.69 32.49 -1.44 5.5-0.98 7.47 1.74 7.47 1.91 0 4.25-2.57 6.7-7.35 1.46-2.85 2.31-4.05 3.06-4.34 0.56-0.22 1.14-0.31 1.24-0.2 0.54 0.55-3.95 13.33-6.95 19.76 -5.6 12.01-12.4 17.43-21.96 17.51 -6.49 0.06-9.08-4.29-7.53-12.69 0.59-3.21 0.3-3.57-1.01-1.25 -7.86 13.94-15.48 19.96-25.23 19.96 -3.77 0-6.29-0.95-8.92-3.35 -3.77-3.45-5.09-7.33-5.06-14.8 0.03-8.29 2.08-16.07 6.83-25.9 7.37-15.26 17.54-27.64 30.09-36.64C164.07 81.11 172.1 77.55 177.77 76.8L177.77 76.8zM164.75 102.81c-2.61-0.9-2.98-0.92-5.18-0.22 -5.89 1.87-11.15 7.2-15.09 15.32 -2.42 4.98-3.27 8.17-3.41 12.85 -0.22 7.55 2.22 11.27 7.33 11.15 4.14-0.1 8.17-1.87 11.73-5.16 5.69-5.26 11.04-16.39 11.55-24.02 0.19-2.81 0.09-3.59-0.66-5.34C170.06 105.14 168.77 104.2 164.75 102.81L164.75 102.81zM161.62 201.89c-3.24 0.68-5.47 3.73-7.8 10.67 -0.88 2.61-1.59 4.79-1.59 4.86 0 0.07 0.28 0.12 0.6 0.12 0.33 0 0.95-0.68 1.38-1.53 1-1.97 3.41-4.1 4.65-4.1 2.84 0 2.94 3.94 0.24 9.36 -2.74 5.5-6.14 8.72-9.24 8.72 -3.18 0-3.16-2.65 0.11-12.73 2.97-9.16 2.99-10.93 0.17-12.4 -2.76-1.44-6.76 0.43-9.36 4.36 -1.51 2.29-4.7 9.71-4.33 10.08 0.66 0.66 1.36 0 2.45-2.33 1.26-2.69 2.3-3.66 3.29-3.06 0.66 0.4 0.18 2.5-2.64 11.65 -2.18 7.07-1.94 9.47 1.2 11.81 1.71 1.28 6.91 1.16 9.88-0.22 4.95-2.3 8.87-6.65 12.42-13.8 3.17-6.39 4.1-9.82 4.12-15.3 0.01-3.01-0.15-3.74-1.19-5.3C165.48 202.04 163.15 201.57 161.62 201.89L161.62 201.89zM400.77 35.61c-6.9 2.68-15.1 4.46-22.13 4.81 -2.73 0.14-5.03 0.3-5.1 0.37 -0.07 0.07 0.38 1.73 0.98 3.66 1.07 3.42 1.09 3.66 0.64 7.19 -0.6 4.75-1.96 9.88-5.17 19.64 -2.7 8.19-5.6 15.62-7.82 20.04 -4.96 9.84-12.34 15.74-15.43 12.33 -1.79-1.98-1-6.59 3.29-19.08 7.54-21.97 8.61-26.1 8.34-32.01 -0.29-6.43-2.74-9.17-8.21-9.21 -2.89-0.02-5.18 0.59-8.15 2.16 -6.34 3.36-11.79 11.95-19.74 31.15 -1.5 3.62-2.62 6.64-2.51 6.75 0.11 0.11 1.06 0.06 2.11-0.12l1.91-0.32 2.25-4.42c2.78-5.46 3.71-6.76 5.26-7.41 2.46-1.03 3.31 0.31 2.55 4 -0.3 1.44-2.9 9.48-5.79 17.87 -7.51 21.81-8.8 27.36-7.45 31.97 1.49 5.09 7.53 7.69 13.92 5.99 7.3-1.94 14.58-9.08 22.78-22.34 1.2-1.94 0.23 1.57-4.74 17.03 -5.81 18.11-7.42 22.65-9.51 26.79 -3.01 5.98-7.14 10.71-10.75 12.3 -2.77 1.22-6.79 1.44-8.64 0.48 -2.71-1.41-3.54-4.94-1.91-8.16 1.82-3.6 7.81-5.31 12.27-3.51 0.97 0.39 1.92 0.58 2.17 0.43 0.68-0.42 0.13-4.99-0.82-6.84 -1.07-2.08-2.83-3.55-6.05-5.06 -6.51-3.06-16.11-0.86-22.45 5.13 -4.88 4.61-6.96 9.17-6.98 15.32 -0.01 3.17 0.51 4.47 1.45 6.58 2.62 5.85 8.5 8.51 17.66 8.48 9.56-0.03 17.96-2.6 26.1-7.98 3.81-2.52 9.98-8.53 12.87-12.54 2.9-4.02 6.7-11.45 9.47-18.52 3-7.66 11.72-34.06 19.23-58.2 3.53-11.37 7.08-22.55 7.88-24.82 2.65-7.59 5.84-14.18 9.58-19.84 0.72-1.08 0.72-1.12 0-1.1C403.71 34.59 402.21 35.05 400.77 35.61L400.77 35.61zM337.51 1.75c-0.89 0.51-3.13 1.74-5.02 2.77 -1.89 1.02-4.58 2.52-6.02 3.34 -4.46 2.55-15.29 7.68-19.48 9.23 -2.21 0.82-4.17 1.63-4.36 1.81 -0.19 0.18 0.07 1.49 0.58 2.93 0.88 2.47 0.9 2.77 0.42 5.62 -0.45 2.69-6.89 25.83-7.43 26.71 -0.12 0.2-1.26 0.59-2.55 0.88 -2.37 0.53-4.7 1.54-6.63 2.9 -1.81 1.27-4.64 6.34-7.74 13.85 -2.7 6.55-2.88 7.16-2.16 7.29 0.43 0.08 1.91-0.6 3.27-1.49 2.65-1.74 5.41-2.87 6.99-2.87 0.8 0 0.92 0.15 0.7 0.9 -0.14 0.5-2.76 8.78-5.81 18.37 -11.01 34.66-11.51 36.88-9.24 41.33 2.87 5.63 12.26 6.31 19.93 1.43 5.6-3.55 10.59-12.12 14.56-24.97 0.87-2.81 1.73-5.47 1.89-5.86 0.26-0.62 0.1-0.7-1.06-0.6 -1.29 0.11-1.49 0.36-3.57 4.26 -3.38 6.35-5.13 8.14-7.4 7.56 -1.42-0.36-1.87-2.22-1.21-5.07 0.58-2.53 5.49-17.87 10.14-31.73l3.17-9.44 3.37-0.83c4.02-0.99 6.33-2.12 7.71-3.75 2.27-2.69 8.62-20.52 7.32-20.52 -0.13 0-1.42 0.72-2.87 1.59 -1.46 0.88-3.81 1.98-5.3 2.47 -1.48 0.49-2.89 0.96-3.17 1.06 -0.28 0.1-0.5-0.1-0.5-0.46 0-0.91 9.21-26.11 11.63-31.81 2.91-6.87 5.62-10.58 9.74-13.32 1.2-0.8 3.74-2.91 2.73-4.31C339.86 0.66 339.03 0.88 337.51 1.75L337.51 1.75zM246.93 62.92c-12.29 2.13-22.23 8.55-26.56 17.15 -2.23 4.44-2.94 10.68-1.73 15.38 1.15 4.49 3.75 6.71 13.63 11.65 9.96 4.98 12.36 7.72 11.69 13.33 -0.33 2.81-1.06 4.46-2.87 6.47 -2.04 2.27-4.12 3.42-8.38 4.65 -6.06 1.76-10.74 1.2-12.11-1.44 -1.33-2.56-0.3-5.71 2.35-7.23 1.48-0.85 2.19-0.96 5.8-0.96 2.73 0 4.12-0.15 4.12-0.44 0-0.7-2.13-3.48-3.66-4.78 -2.18-1.84-4.58-2.7-8.15-2.91 -10.36-0.61-18.95 5.11-22.17 14.75 -1.13 3.38-1.01 9.86 0.23 13.05 1.22 3.12 4.31 6.25 7.77 7.87 10.57 4.94 30.16 2.17 41.45-5.84 12.33-8.76 17.81-27.12 11.04-36.96 -2.59-3.76-4.93-5.31-13.69-9.04 -9-3.83-10.89-5.83-9.61-10.12 1.42-4.74 8.93-8.66 13.26-6.92 2.97 1.19 3.19 5.03 0.4 6.93 -1.25 0.85-1.75 0.94-4.52 0.78 -1.73-0.1-3.11-0.05-3.11 0.1 0 0.56 3.9 3.96 5.46 4.76 2.27 1.16 6.31 1.79 9.4 1.47 6.83-0.7 12.16-4.37 15.19-10.44 1.11-2.23 1.39-3.81 1.36-7.71 -0.03-4.06-1.13-6.84-3.7-9.33C265.39 62.82 256.69 61.22 246.93 62.92L246.93 62.92zM186.24 198.85c3.38-1.38 5.87-1.28 9.04 0.36 1.89 0.98 2.52 1.51 2.47 2.09 -0.03 0.43-1.25 4.24-2.73 8.49 -2.93 8.47-3.34 10.69-2.03 10.89 0.57 0.08 1.1-0.36 1.82-1.53 1.63-2.65 1.93-3 2.24-2.69 0.78 0.78-3.15 9.76-5.2 11.89 -1.78 1.85-3.27 2.54-5.56 2.57 -2.57 0.03-3.46-0.77-3.62-3.25l-0.12-1.89 -1.76 2.49c-2.58 3.65-5.65 5.4-8.88 5.04 -3.23-0.35-4.92-2.83-4.89-7.17 0.03-3.61 0.82-6.51 2.96-10.76 2.18-4.34 4.52-7.54 7.84-10.73C181.06 201.52 183.05 200.15 186.24 198.85L186.24 198.85zM186.67 209.83c-0.78-1.2-2.92-1.87-4.57-1.45 -2.92 0.76-6.57 6.15-6.91 10.2 -0.33 3.86 0.97 5.39 4.06 4.81C183.47 222.61 188.74 212.98 186.67 209.83L186.67 209.83zM79.13 124.88c-5.22-1.2-15.25-1.42-19.76-0.42 -9.76 2.17-16.47 6.37-19.59 13.67 -0.89 2.09-1.41 4.02-1.5 7.07 -0.13 4.58 0.59 6.15 3.29 8.71 7.45 7.08 23.7 5.24 36.27-4.11 3.07-2.28 8.42-7.7 10.69-10.83 2.07-2.85 4.57-6.94 4.57-7.47 0-0.65-4.78-3.57-7.75-4.75C83.85 126.17 81.06 125.33 79.13 124.88L79.13 124.88zM47.92 184.39c-3.26 0.48-10.72 0.58-14.14 0.19 -5.9-0.69-13.35-3.43-18.07-6.66 -6.55-4.48-10.79-10.73-12.19-17.96 -0.67-3.45-0.26-11.45 0.79-15.46 3.52-13.42 15.98-25.55 31.56-30.74 7.28-2.42 11.25-3.04 19.68-3.04 8.35 0 12.32 0.92 19.16 2.94 13.98 4.12 21.54 10.82 21.54 10.82 0.54-0.54 4.28-13.12 6.54-21.99 1.98-7.79 2.86-13.29 2.13-13.29 -0.22 0-2.85 0.53-5.82 1.18 -5.34 1.16-17.96 3.38-21.85 3.84 -1.12 0.13-2.63 0.32-3.41 0.42 -8.66 1.15-14.82 1.51-26.47 1.55l-9.76 0.03 -2.21-4.02c-1.22-2.21-3.12-5.73-4.24-7.83 -1.11-2.09-2.43-4.54-2.91-5.42 -0.49-0.89-1.51-2.77-2.29-4.22 -0.77-1.43-2.72-5.02-4.32-7.95 -1.6-2.93-2.81-5.44-2.69-5.56 0.12-0.12 1.83 0.24 3.76 0.79 10.25 2.94 19.8 4.94 30.24 6.33 5.39 0.72 8.76 0.9 18.07 0.93 6.31 0.02 13.16-0.1 15.26-0.28 8.72-0.73 21.82-3.06 22.81-4.06 0.4-0.4 0.6-1.97 0.69-5.42 0.15-5.42 0.1-7.11 3.65-11.37 3.18-3.81 9.07-6.43 13.65-7.97 1.95-0.65 3.53-0.86 6.59-0.84 2.21 0.01 4.21 0.14 4.44 0.28 0.23 0.15-1.44 1.32-3.49 3.25 0 0-2.44 2.09-3.44 3.96 -1.3 2.43-1.54 4.04-2.17 6.19 -1.03 3.55-1.64 6.75-1.49 6.91 0.41 0.41 13.25-4.09 27.63-9.67C193.36 35.4 205.2 30.48 230.5 28.27c12.81-1.12 20.65 1.27 20.65 1.27l8.84 8.15c4.86 4.48 8.89 8.32 8.97 8.51 0.19 0.54-1.09 0.79-4.35 0.84 -12.58 0.22-32.21 3.31-49.8 7.83 -14.67 3.77-22.25 6.19-62.21 19.82 -8.47 2.89-19.02 6.35-23.48 7.7 -4.46 1.35-8.3 2.71-8.55 3.03 -0.25 0.32-1.23 3.8-2.16 7.69 -3.53 14.78-7.58 29.05-10.65 37.51l-1.75 4.82 2.58 4.7c5.98 10.89 14.1 25.11 17.61 35.38 0.66 1.93 1.43 3.61 1.69 3.7 0.59 0.21 20.77-3.79 60.09-11.9 6.51-1.34 12.66-2.6 13.66-2.8 2.06-0.4 19.56-4.03 37.03-7.66 13.17-2.74 14.67-2.82 18.4-0.99l2.25 1.1c0 0 26.22-5.28 27.23-5.38 3.99-0.4 8.26 1.36 9.18 5.61 1.11 5.13-1.24 8.43-5.64 9.56 -0.6 0.16-21.81 4.88-26.79 5.91 -0.77 0.16-2.19 2.29-2.19 2.29 -2.52 2.64-3.64 3.3-7.05 4.16 -2.04 0.52-18.8 3.95-42.37 8.69 -3.2 0.64-14.78 3-25.7 5.23 -10.92 2.23-20.69 4.22-21.69 4.42 -16.99 3.42-30.66 6.4-31.05 6.79 -0.21 0.21-0.16 2.73 0.12 5.99 0.64 7.55 0.12 10.18-2.17 10.87 -0.68 0.21-6.55 1.51-13.05 2.9 -13.94 2.98-13.03 3.11-15.6-2.16 -1.53-3.13-1.82-3.49-2.81-3.49 -0.6 0-3.92 0.64-7.33 1.42 -28.19 6.45-30.27 6.73-35.91 4.83 -4.9-1.65-7.76-3.97-10.46-8.46 -1.91-3.18-2.68-5.98-2.71-9.8 -0.03-5.46 1.62-9.6 5.47-13.66 2.1-2.21 4.44-3.79 6.97-4.69 0 0 3.49-1.03 4.69-1.24 1.76-0.31 4.91-0.87 9.45-1.88 4.54-1.01 11.21-2.48 14.86-3.27 3.66-0.8 6.95-1.54 7.35-1.67 0.63-0.19 0.72-0.7 0.66-4.04 -0.05-3.21 0.06-3.98 0.72-4.86 0.96-1.28-2.03-0.64 18.82-5.1 1.17-0.25 2.22-0.69 2.33-0.98 0.47-1.24-5.29-12.48-7.6-16.34 -3.28-5.47-3.98-6.01-4.06-6.01 -0.08 0-2.04 2.85-4.34 6.31 -12.01 18.03-24.84 29.56-41.31 33.67C55 183.15 47.92 184.39 47.92 184.39zM283.06 156.14c-2.47 0.49-21.83 4.77-22.77 4.94 -2.19 0.4-2.67 0.17-3.99-0.6 -3.35-1.96-4.78-2.01-12.65-0.45 -15.18 3-114.34 23.51-114.43 23.51 -0.35 0 0.76 6.16 1.17 8.18 0.4 1.97 1.67 7.6 1.89 7.83 0.39 0.39 115.05-22.73 115.05-22.73 9.92-2.25 9.98-3.61 11.16-5.17 1.07-1.4 2.21-2 2.86-2.16 0.6-0.14 20.59-4.48 23.71-5.25 4.18-1.02 7.95-2.4 7.02-5.9C291.15 154.8 286 155.56 283.06 156.14zM98.63 148.91c-12.01 18.03-24.98 29.06-41.31 33.67 -4.03 1.14-7.03 1.49-9.4 1.82M55.75 187.99c0 0 2.88-0.81 4.69-1.24 1.73-0.42 4.91-0.87 9.45-1.88M99.26 206.87c-0.46-2.17-0.79-2.9-1.26-2.87 -0.35 0.02-4.32 1.95-6.75 2.82 -10.02 3.6-16.59 4.86-23.17 6.04 -4.18 0.75-10.23 0.56-13.13-0.41 -1.41-0.47-2.98-1.04-2.9 1.26 0.03 0.8 2.15 3.14 5.54 3.72 2.58 0.44 4.46 0.76 9.68-0.02 7.55-1.12 31.35-6.43 32.13-7.17C99.77 209.89 99.73 209.08 99.26 206.87L99.26 206.87z"/>
</svg>
